# xmcd CD database file
#
# Track frame offsets:
#	150
#	15900
#	28010
#	41885
#	61430
#	74395
#	90115
#	104390
#	120710
#	133170
#	149135
#	164845
#
# Disc length: 2388 seconds
#
# Revision: 2
# Processed by: cddbd v1.5.1PL0 Copyright (c) Steve Scherf et al.
# Submitted via: CDex 1.51
#
DISCID=ae09520c
DTITLE=Happy Baby - Lullabies/Abendlieder
DYEAR=1997
DGENRE=Kinderlieder
TTITLE0=You are in my Heart/Du, Du liegst mir im Herzen
TTITLE1=Rosebud/Sah ein Knab' ein Röslein stehn
TTITLE2=Faithfulness and Honesty/Üb' immer Treu' und Redlichkeit
TTITLE3=All the Pretty Little Horses/Wild Little Horses
TTITLE4=In The Moonlight/Au clair de la lune
TTITLE5=When my Baby dreams/Wenn mein Baby träumt
TTITLE6=Lorelai/Ich weiß nicht, was soll es bedeuten
TTITLE7=Let Life be full of Gladness/Freut Euch des Lebens
TTITLE8=A Red Dragonfly (Japanese)/Die rote Libelle (japanisch)
TTITLE9=Shalom means Peace/Shalom heißt Frieden
TTITLE10=Fluffy Pyffy Clouds/Weiche Wölkchen
TTITLE11=Farewell Mother night/Ade nun zur guten Nacht
EXTD=YEAR: 1997
EXTT0=
EXTT1=
EXTT2=
EXTT3=
EXTT4=
EXTT5=
EXTT6=
EXTT7=
EXTT8=
EXTT9=
EXTT10=
EXTT11=
PLAYORDER=
